<svg t="1625915593256" class="icon" viewBox="0 0 1024 1024" version="1.1" xmlns="http://www.w3.org/2000/svg" p-id="4851" width="200" height="200"><path d="M534.1696 908.5952h-0.3072c-43.8784-0.1024-85.0432-17.3056-115.968-48.4352l-234.3424-236.0832c-36.096-36.352-53.248-88.3712-45.824-139.1104l31.8976-218.368c5.9392-40.5504 37.1712-71.8848 77.7216-77.8752l218.3168-32.256c51.2512-7.5776 103.68 9.8816 140.2368 46.6432l234.496 236.2368c63.4368 63.8976 63.232 167.6288-0.4096 231.2704l-189.9008 189.9008c-31.0272 31.0272-72.1408 48.0768-115.9168 48.0768zM489.4208 216.2176c-4.9152 0-9.8816 0.3584-14.848 1.0752l-218.3168 32.256a30.57664 30.57664 0 0 0-25.9072 25.9584l-31.8976 218.368c-4.608 31.6928 6.0928 64.2048 28.672 86.9376l234.3424 236.0832c19.3024 19.456 45.056 30.208 72.4992 30.2592h0.2048c27.3408 0 53.0432-10.6496 72.3968-30.0032l189.9008-189.9008c39.7824-39.7824 39.8848-104.6016 0.256-144.5376l-234.496-236.2368c-19.3024-19.456-45.7216-30.2592-72.8064-30.2592z" fill="#d81e06" p-id="4852"></path><path d="M390.2464 508.8256c-55.1424 0-99.9936-44.8512-99.9936-99.9936 0-55.1424 44.8512-99.9936 99.9936-99.9936s99.9936 44.8512 99.9936 99.9936c0 55.1424-44.8512 99.9936-99.9936 99.9936z m0-138.5472c-21.248 0-38.5536 17.3056-38.5536 38.5536s17.3056 38.5536 38.5536 38.5536 38.5536-17.3056 38.5536-38.5536-17.3056-38.5536-38.5536-38.5536z" fill="#d81e06" p-id="4853"></path><path d="M420.3008 667.0336c-7.9872 0-15.9232-3.072-21.9648-9.216-11.8784-12.1344-11.6736-31.5904 0.4608-43.4176l196.096-192.1536a30.6688 30.6688 0 0 1 43.4176 0.4608c11.8784 12.1344 11.6736 31.5904-0.4608 43.4176l-196.096 192.1536a30.46912 30.46912 0 0 1-21.4528 8.7552zM511.9488 762.4704c-7.7824 0-15.616-2.9696-21.6064-8.8576a30.73024 30.73024 0 0 1-0.256-43.4688l113.6128-115.0464a30.73024 30.73024 0 0 1 43.4688-0.256 30.73024 30.73024 0 0 1 0.256 43.4688l-113.6128 115.0464a30.7456 30.7456 0 0 1-21.8624 9.1136z" fill="#d81e06" p-id="4854"></path></svg>